<svg width="296" height="66" viewBox="0 0 296 66" fill="none" xmlns="http://www.w3.org/2000/svg">
<path d="M1.224 11C1.144 11 1.076 10.972 1.02 10.916C0.964 10.86 0.936 10.792 0.936 10.712V2.9C0.936 2.812 0.964 2.74 1.02 2.684C1.076 2.628 1.144 2.6 1.224 2.6H4.152C4.96 2.6 5.624 2.724 6.144 2.972C6.672 3.22 7.068 3.588 7.332 4.076C7.604 4.564 7.744 5.16 7.752 5.864C7.768 6.216 7.776 6.528 7.776 6.8C7.776 7.072 7.768 7.38 7.752 7.724C7.736 8.468 7.6 9.084 7.344 9.572C7.088 10.052 6.7 10.412 6.18 10.652C5.668 10.884 5.012 11 4.212 11H1.224ZM2.604 9.62H4.152C4.6 9.62 4.964 9.556 5.244 9.428C5.524 9.3 5.728 9.096 5.856 8.816C5.992 8.528 6.064 8.152 6.072 7.688C6.08 7.448 6.084 7.24 6.084 7.064C6.092 6.88 6.092 6.7 6.084 6.524C6.084 6.34 6.08 6.132 6.072 5.9C6.056 5.244 5.892 4.76 5.58 4.448C5.268 4.136 4.772 3.98 4.092 3.98H2.604V9.62ZM11.7495 11.12C11.1095 11.12 10.5695 11.008 10.1295 10.784C9.6975 10.56 9.3655 10.244 9.1335 9.836C8.9095 9.428 8.7815 8.952 8.7495 8.408C8.7415 8.264 8.7375 8.088 8.7375 7.88C8.7375 7.672 8.7415 7.496 8.7495 7.352C8.7815 6.8 8.9135 6.324 9.1455 5.924C9.3855 5.516 9.7215 5.2 10.1535 4.976C10.5935 4.752 11.1255 4.64 11.7495 4.64C12.3735 4.64 12.9015 4.752 13.3335 4.976C13.7735 5.2 14.1095 5.516 14.3415 5.924C14.5815 6.324 14.7175 6.8 14.7495 7.352C14.7575 7.496 14.7615 7.672 14.7615 7.88C14.7615 8.088 14.7575 8.264 14.7495 8.408C14.7175 8.952 14.5855 9.428 14.3535 9.836C14.1295 10.244 13.7975 10.56 13.3575 10.784C12.9255 11.008 12.3895 11.12 11.7495 11.12ZM11.7495 9.932C12.1735 9.932 12.5015 9.8 12.7335 9.536C12.9655 9.264 13.0935 8.868 13.1175 8.348C13.1255 8.228 13.1295 8.072 13.1295 7.88C13.1295 7.688 13.1255 7.532 13.1175 7.412C13.0935 6.9 12.9655 6.508 12.7335 6.236C12.5015 5.964 12.1735 5.828 11.7495 5.828C11.3255 5.828 10.9975 5.964 10.7655 6.236C10.5335 6.508 10.4055 6.9 10.3815 7.412C10.3735 7.532 10.3695 7.688 10.3695 7.88C10.3695 8.072 10.3735 8.228 10.3815 8.348C10.4055 8.868 10.5335 9.264 10.7655 9.536C10.9975 9.8 11.3255 9.932 11.7495 9.932ZM17.3793 11C17.2673 11 17.1833 10.972 17.1273 10.916C17.0713 10.86 17.0233 10.788 16.9833 10.7L15.2673 5.132C15.2593 5.092 15.2553 5.056 15.2553 5.024C15.2553 4.952 15.2793 4.892 15.3273 4.844C15.3833 4.788 15.4433 4.76 15.5073 4.76H16.3953C16.4913 4.76 16.5673 4.788 16.6233 4.844C16.6793 4.892 16.7113 4.94 16.7193 4.988L17.8953 8.96L19.1433 5.024C19.1593 4.968 19.1953 4.912 19.2513 4.856C19.3073 4.792 19.3913 4.76 19.5033 4.76H20.1033C20.2153 4.76 20.2993 4.792 20.3553 4.856C20.4113 4.912 20.4473 4.968 20.4633 5.024L21.7113 8.96L22.8873 4.988C22.8953 4.94 22.9233 4.892 22.9713 4.844C23.0273 4.788 23.1033 4.76 23.1993 4.76H24.0873C24.1593 4.76 24.2193 4.788 24.2673 4.844C24.3233 4.892 24.3513 4.952 24.3513 5.024C24.3513 5.056 24.3433 5.092 24.3273 5.132L22.6113 10.7C22.5873 10.788 22.5433 10.86 22.4793 10.916C22.4233 10.972 22.3393 11 22.2273 11H21.4473C21.3353 11 21.2473 10.972 21.1833 10.916C21.1193 10.86 21.0753 10.788 21.0513 10.7L19.8033 6.908L18.5553 10.7C18.5233 10.788 18.4753 10.86 18.4113 10.916C18.3553 10.972 18.2673 11 18.1473 11H17.3793ZM25.567 11C25.487 11 25.419 10.972 25.363 10.916C25.307 10.86 25.279 10.792 25.279 10.712V5.048C25.279 4.968 25.307 4.9 25.363 4.844C25.419 4.788 25.487 4.76 25.567 4.76H26.551C26.631 4.76 26.699 4.788 26.755 4.844C26.811 4.9 26.839 4.968 26.839 5.048V5.54C27.047 5.284 27.311 5.072 27.631 4.904C27.959 4.728 28.363 4.64 28.843 4.64C29.331 4.64 29.755 4.752 30.115 4.976C30.475 5.192 30.751 5.5 30.943 5.9C31.143 6.3 31.243 6.78 31.243 7.34V10.712C31.243 10.792 31.215 10.86 31.159 10.916C31.103 10.972 31.035 11 30.955 11H29.899C29.819 11 29.751 10.972 29.695 10.916C29.639 10.86 29.611 10.792 29.611 10.712V7.412C29.611 6.948 29.495 6.584 29.263 6.32C29.039 6.056 28.711 5.924 28.279 5.924C27.863 5.924 27.531 6.056 27.283 6.32C27.035 6.584 26.911 6.948 26.911 7.412V10.712C26.911 10.792 26.883 10.86 26.827 10.916C26.771 10.972 26.703 11 26.623 11H25.567ZM32.8273 11C32.7473 11 32.6793 10.972 32.6233 10.916C32.5673 10.86 32.5393 10.792 32.5393 10.712V2.768C32.5393 2.688 32.5673 2.62 32.6233 2.564C32.6793 2.508 32.7473 2.48 32.8273 2.48H33.8233C33.9033 2.48 33.9713 2.508 34.0273 2.564C34.0833 2.62 34.1113 2.688 34.1113 2.768V10.712C34.1113 10.792 34.0833 10.86 34.0273 10.916C33.9713 10.972 33.9033 11 33.8233 11H32.8273ZM38.2231 11.12C37.5831 11.12 37.0431 11.008 36.6031 10.784C36.1711 10.56 35.8391 10.244 35.6071 9.836C35.3831 9.428 35.2551 8.952 35.2231 8.408C35.2151 8.264 35.2111 8.088 35.2111 7.88C35.2111 7.672 35.2151 7.496 35.2231 7.352C35.2551 6.8 35.3871 6.324 35.6191 5.924C35.8591 5.516 36.1951 5.2 36.6271 4.976C37.0671 4.752 37.5991 4.64 38.2231 4.64C38.8471 4.64 39.3751 4.752 39.8071 4.976C40.2471 5.2 40.5831 5.516 40.8151 5.924C41.0551 6.324 41.1911 6.8 41.2231 7.352C41.2311 7.496 41.2351 7.672 41.2351 7.88C41.2351 8.088 41.2311 8.264 41.2231 8.408C41.1911 8.952 41.0591 9.428 40.8271 9.836C40.6031 10.244 40.2711 10.56 39.8311 10.784C39.3991 11.008 38.8631 11.12 38.2231 11.12ZM38.2231 9.932C38.6471 9.932 38.9751 9.8 39.2071 9.536C39.4391 9.264 39.5671 8.868 39.5911 8.348C39.5991 8.228 39.6031 8.072 39.6031 7.88C39.6031 7.688 39.5991 7.532 39.5911 7.412C39.5671 6.9 39.4391 6.508 39.2071 6.236C38.9751 5.964 38.6471 5.828 38.2231 5.828C37.7991 5.828 37.4711 5.964 37.2391 6.236C37.0071 6.508 36.8791 6.9 36.8551 7.412C36.8471 7.532 36.8431 7.688 36.8431 7.88C36.8431 8.072 36.8471 8.228 36.8551 8.348C36.8791 8.868 37.0071 9.264 37.2391 9.536C37.4711 9.8 37.7991 9.932 38.2231 9.932ZM44.1367 11.12C43.7207 11.12 43.3447 11.04 43.0087 10.88C42.6727 10.712 42.4047 10.492 42.2047 10.22C42.0127 9.94 41.9167 9.628 41.9167 9.284C41.9167 8.724 42.1407 8.28 42.5887 7.952C43.0447 7.616 43.6447 7.392 44.3887 7.28L46.0327 7.04V6.788C46.0327 6.452 45.9487 6.192 45.7807 6.008C45.6127 5.824 45.3247 5.732 44.9167 5.732C44.6287 5.732 44.3927 5.792 44.2087 5.912C44.0327 6.024 43.9007 6.176 43.8127 6.368C43.7487 6.472 43.6567 6.524 43.5367 6.524H42.5887C42.5007 6.524 42.4327 6.5 42.3847 6.452C42.3447 6.404 42.3247 6.34 42.3247 6.26C42.3327 6.132 42.3847 5.976 42.4807 5.792C42.5767 5.608 42.7287 5.432 42.9367 5.264C43.1447 5.088 43.4127 4.94 43.7407 4.82C44.0687 4.7 44.4647 4.64 44.9287 4.64C45.4327 4.64 45.8567 4.704 46.2007 4.832C46.5527 4.952 46.8327 5.116 47.0407 5.324C47.2487 5.532 47.4007 5.776 47.4967 6.056C47.5927 6.336 47.6407 6.632 47.6407 6.944V10.712C47.6407 10.792 47.6127 10.86 47.5567 10.916C47.5007 10.972 47.4327 11 47.3527 11H46.3807C46.2927 11 46.2207 10.972 46.1647 10.916C46.1167 10.86 46.0927 10.792 46.0927 10.712V10.244C45.9887 10.396 45.8487 10.54 45.6727 10.676C45.4967 10.804 45.2807 10.912 45.0247 11C44.7767 11.08 44.4807 11.12 44.1367 11.12ZM44.5447 9.98C44.8247 9.98 45.0767 9.92 45.3007 9.8C45.5327 9.68 45.7127 9.496 45.8407 9.248C45.9767 8.992 46.0447 8.672 46.0447 8.288V8.036L44.8447 8.228C44.3727 8.3 44.0207 8.416 43.7887 8.576C43.5567 8.736 43.4407 8.932 43.4407 9.164C43.4407 9.34 43.4927 9.492 43.5967 9.62C43.7087 9.74 43.8487 9.832 44.0167 9.896C44.1847 9.952 44.3607 9.98 44.5447 9.98ZM51.2561 11.12C50.8401 11.12 50.4721 11.052 50.1521 10.916C49.8401 10.772 49.5801 10.572 49.3721 10.316C49.1641 10.06 49.0041 9.76 48.8921 9.416C48.7801 9.064 48.7161 8.68 48.7001 8.264C48.6921 8.12 48.6881 7.992 48.6881 7.88C48.6881 7.76 48.6921 7.628 48.7001 7.484C48.7161 7.084 48.7761 6.712 48.8801 6.368C48.9921 6.024 49.1521 5.724 49.3601 5.468C49.5761 5.204 49.8401 5 50.1521 4.856C50.4721 4.712 50.8401 4.64 51.2561 4.64C51.6881 4.64 52.0521 4.716 52.3481 4.868C52.6521 5.012 52.9041 5.2 53.1041 5.432V2.768C53.1041 2.688 53.1281 2.62 53.1761 2.564C53.2321 2.508 53.3041 2.48 53.3921 2.48H54.4121C54.4921 2.48 54.5601 2.508 54.6161 2.564C54.6721 2.62 54.7001 2.688 54.7001 2.768V10.712C54.7001 10.792 54.6721 10.86 54.6161 10.916C54.5601 10.972 54.4921 11 54.4121 11H53.4641C53.3761 11 53.3041 10.972 53.2481 10.916C53.2001 10.86 53.1761 10.792 53.1761 10.712V10.268C52.9761 10.516 52.7201 10.72 52.4081 10.88C52.1041 11.04 51.7201 11.12 51.2561 11.12ZM51.7001 9.836C52.0361 9.836 52.3041 9.76 52.5041 9.608C52.7041 9.456 52.8521 9.264 52.9481 9.032C53.0441 8.792 53.0961 8.548 53.1041 8.3C53.1121 8.156 53.1161 8.004 53.1161 7.844C53.1161 7.676 53.1121 7.52 53.1041 7.376C53.0961 7.136 53.0401 6.908 52.9361 6.692C52.8321 6.468 52.6801 6.284 52.4801 6.14C52.2801 5.996 52.0201 5.924 51.7001 5.924C51.3641 5.924 51.0961 6 50.8961 6.152C50.7041 6.296 50.5641 6.488 50.4761 6.728C50.3881 6.968 50.3361 7.232 50.3201 7.52C50.3121 7.76 50.3121 8 50.3201 8.24C50.3361 8.528 50.3881 8.792 50.4761 9.032C50.5641 9.272 50.7041 9.468 50.8961 9.62C51.0961 9.764 51.3641 9.836 51.7001 9.836ZM57.8733 11C57.8093 11 57.7493 10.976 57.6933 10.928C57.6453 10.88 57.6213 10.82 57.6213 10.748C57.6213 10.716 57.6293 10.68 57.6453 10.64L60.5373 2.9C60.5613 2.82 60.6053 2.752 60.6693 2.696C60.7413 2.632 60.8373 2.6 60.9573 2.6H62.2653C62.3853 2.6 62.4773 2.632 62.5413 2.696C62.6053 2.752 62.6533 2.82 62.6853 2.9L65.5773 10.64C65.5853 10.68 65.5893 10.716 65.5893 10.748C65.5893 10.82 65.5653 10.88 65.5173 10.928C65.4693 10.976 65.4133 11 65.3493 11H64.3053C64.1933 11 64.1093 10.976 64.0533 10.928C64.0053 10.872 63.9733 10.82 63.9573 10.772L63.3933 9.308H59.8293L59.2653 10.772C59.2493 10.82 59.2133 10.872 59.1573 10.928C59.1093 10.976 59.0293 11 58.9173 11H57.8733ZM60.2493 7.928H62.9733L61.6053 4.22L60.2493 7.928ZM66.6256 13.28C66.5456 13.28 66.4776 13.252 66.4216 13.196C66.3656 13.14 66.3376 13.072 66.3376 12.992V5.048C66.3376 4.968 66.3656 4.9 66.4216 4.844C66.4776 4.788 66.5456 4.76 66.6256 4.76H67.5736C67.6616 4.76 67.7296 4.788 67.7776 4.844C67.8336 4.9 67.8616 4.968 67.8616 5.048V5.528C68.0536 5.272 68.3056 5.06 68.6176 4.892C68.9296 4.724 69.3176 4.64 69.7816 4.64C70.2056 4.64 70.5736 4.708 70.8856 4.844C71.1976 4.98 71.4576 5.176 71.6656 5.432C71.8736 5.68 72.0336 5.976 72.1456 6.32C72.2576 6.664 72.3216 7.044 72.3376 7.46C72.3456 7.596 72.3496 7.736 72.3496 7.88C72.3496 8.024 72.3456 8.168 72.3376 8.312C72.3296 8.712 72.2696 9.084 72.1576 9.428C72.0456 9.764 71.8816 10.06 71.6656 10.316C71.4576 10.564 71.1976 10.76 70.8856 10.904C70.5736 11.048 70.2056 11.12 69.7816 11.12C69.3496 11.12 68.9816 11.044 68.6776 10.892C68.3736 10.732 68.1256 10.524 67.9336 10.268V12.992C67.9336 13.072 67.9056 13.14 67.8496 13.196C67.8016 13.252 67.7336 13.28 67.6456 13.28H66.6256ZM69.3376 9.836C69.6816 9.836 69.9496 9.764 70.1416 9.62C70.3336 9.468 70.4696 9.272 70.5496 9.032C70.6376 8.792 70.6896 8.528 70.7056 8.24C70.7216 8 70.7216 7.76 70.7056 7.52C70.6896 7.232 70.6376 6.968 70.5496 6.728C70.4696 6.488 70.3336 6.296 70.1416 6.152C69.9496 6 69.6816 5.924 69.3376 5.924C69.0096 5.924 68.7416 6 68.5336 6.152C68.3336 6.304 68.1856 6.5 68.0896 6.74C68.0016 6.972 67.9496 7.212 67.9336 7.46C67.9256 7.604 67.9216 7.756 67.9216 7.916C67.9216 8.076 67.9256 8.232 67.9336 8.384C67.9416 8.624 67.9976 8.856 68.1016 9.08C68.2056 9.296 68.3576 9.476 68.5576 9.62C68.7576 9.764 69.0176 9.836 69.3376 9.836ZM73.7567 13.28C73.6767 13.28 73.6087 13.252 73.5527 13.196C73.4967 13.14 73.4687 13.072 73.4687 12.992V5.048C73.4687 4.968 73.4967 4.9 73.5527 4.844C73.6087 4.788 73.6767 4.76 73.7567 4.76H74.7047C74.7927 4.76 74.8607 4.788 74.9087 4.844C74.9647 4.9 74.9927 4.968 74.9927 5.048V5.528C75.1847 5.272 75.4367 5.06 75.7487 4.892C76.0607 4.724 76.4487 4.64 76.9127 4.64C77.3367 4.64 77.7047 4.708 78.0167 4.844C78.3287 4.98 78.5887 5.176 78.7967 5.432C79.0047 5.68 79.1647 5.976 79.2767 6.32C79.3887 6.664 79.4527 7.044 79.4687 7.46C79.4767 7.596 79.4807 7.736 79.4807 7.88C79.4807 8.024 79.4767 8.168 79.4687 8.312C79.4607 8.712 79.4007 9.084 79.2887 9.428C79.1767 9.764 79.0127 10.06 78.7967 10.316C78.5887 10.564 78.3287 10.76 78.0167 10.904C77.7047 11.048 77.3367 11.12 76.9127 11.12C76.4807 11.12 76.1127 11.044 75.8087 10.892C75.5047 10.732 75.2567 10.524 75.0647 10.268V12.992C75.0647 13.072 75.0367 13.14 74.9807 13.196C74.9327 13.252 74.8647 13.28 74.7767 13.28H73.7567ZM76.4687 9.836C76.8127 9.836 77.0807 9.764 77.2727 9.62C77.4647 9.468 77.6007 9.272 77.6807 9.032C77.7687 8.792 77.8207 8.528 77.8367 8.24C77.8527 8 77.8527 7.76 77.8367 7.52C77.8207 7.232 77.7687 6.968 77.6807 6.728C77.6007 6.488 77.4647 6.296 77.2727 6.152C77.0807 6 76.8127 5.924 76.4687 5.924C76.1407 5.924 75.8727 6 75.6647 6.152C75.4647 6.304 75.3167 6.5 75.2207 6.74C75.1327 6.972 75.0807 7.212 75.0647 7.46C75.0567 7.604 75.0527 7.756 75.0527 7.916C75.0527 8.076 75.0567 8.232 75.0647 8.384C75.0727 8.624 75.1287 8.856 75.2327 9.08C75.3367 9.296 75.4887 9.476 75.6887 9.62C75.8887 9.764 76.1487 9.836 76.4687 9.836ZM80.8398 6.8C80.7598 6.8 80.6918 6.772 80.6358 6.716C80.5798 6.66 80.5518 6.592 80.5518 6.512V5.372C80.5518 5.284 80.5798 5.212 80.6358 5.156C80.6918 5.1 80.7598 5.072 80.8398 5.072H82.0278C82.1158 5.072 82.1878 5.1 82.2438 5.156C82.2998 5.212 82.3278 5.284 82.3278 5.372V6.512C82.3278 6.592 82.2998 6.66 82.2438 6.716C82.1878 6.772 82.1158 6.8 82.0278 6.8H80.8398ZM80.8398 11C80.7598 11 80.6918 10.972 80.6358 10.916C80.5798 10.86 80.5518 10.792 80.5518 10.712V9.572C80.5518 9.484 80.5798 9.412 80.6358 9.356C80.6918 9.3 80.7598 9.272 80.8398 9.272H82.0278C82.1158 9.272 82.1878 9.3 82.2438 9.356C82.2998 9.412 82.3278 9.484 82.3278 9.572V10.712C82.3278 10.792 82.2998 10.86 82.2438 10.916C82.1878 10.972 82.1158 11 82.0278 11H80.8398Z" fill="#212337"/>
<path d="M137.693 61.3871C137.693 63.5188 135.93 65.2454 133.75 65.2454H4.71755C2.53838 65.2454 0.769531 63.5188 0.769531 61.3871V30.6182C0.769531 28.4876 2.53838 26.7549 4.71755 26.7549H133.749C135.93 26.7549 137.692 28.4876 137.692 30.6182L137.693 61.3871Z" fill="black"/>
<path d="M133.333 26.8013C135.708 26.8013 137.64 28.685 137.64 31V61C137.64 63.315 135.708 65.1988 133.333 65.1988H5.12821C2.75385 65.1988 0.821795 63.315 0.821795 61V31C0.821795 28.685 2.75385 26.8013 5.12821 26.8013H133.333ZM133.333 26H5.12821C2.30897 26 0 28.2513 0 31V61C0 63.7488 2.30897 66 5.12821 66H133.333C136.153 66 138.462 63.7488 138.462 61V31C138.462 28.2513 136.153 26 133.333 26Z" fill="#A6A6A6"/>
<path d="M30.9002 45.7838C30.8705 42.5608 33.6069 40.9928 33.732 40.9198C32.1823 38.7168 29.7802 38.4158 28.9361 38.3918C26.9187 38.1848 24.9618 39.5688 23.9341 39.5688C22.8859 39.5688 21.3033 38.4118 19.5977 38.4458C17.4028 38.4788 15.3495 39.7178 14.2233 41.6418C11.8992 45.5648 13.6325 51.3298 15.8592 54.5008C16.9731 56.0538 18.2746 57.7878 19.9782 57.7268C21.6449 57.6598 22.2674 56.6908 24.2787 56.6908C26.2715 56.6908 26.8561 57.7268 28.5936 57.6878C30.3823 57.6598 31.5084 56.1278 32.5833 54.5608C33.8705 52.7808 34.3874 51.0278 34.4079 50.9378C34.3659 50.9238 30.9341 49.6468 30.9002 45.7838Z" fill="white"/>
<path d="M27.6182 36.3058C28.5146 35.2128 29.1279 33.7258 28.9577 32.2168C27.6602 32.2728 26.0377 33.0918 25.1033 34.1608C24.2767 35.1028 23.5382 36.6468 23.729 38.0988C25.1864 38.2048 26.6828 37.3818 27.6182 36.3058Z" fill="white"/>
<path d="M55.0206 57.5038H52.6914L51.4155 53.5948H46.9806L45.7652 57.5038H43.4976L47.8914 44.1958H50.6052L55.0206 57.5038ZM51.0309 51.9548L49.877 48.4798C49.755 48.1248 49.5263 47.2888 49.1888 45.9728H49.1478C49.0135 46.5388 48.797 47.3748 48.4996 48.4798L47.3663 51.9548H51.0309Z" fill="white"/>
<path d="M66.3207 52.5879C66.3207 54.2199 65.8684 55.5099 64.9638 56.4569C64.1535 57.2999 63.1474 57.7209 61.9464 57.7209C60.65 57.7209 59.7187 57.2669 59.1515 56.3589H59.1105V61.4139H56.9238V51.0669C56.9238 50.0409 56.8961 48.9879 56.8428 47.9079H58.7659L58.8879 49.4289H58.9289C59.6582 48.2829 60.7648 47.7109 62.25 47.7109C63.411 47.7109 64.3802 48.1579 65.1556 49.0529C65.933 49.9489 66.3207 51.1269 66.3207 52.5879ZM64.093 52.6659C64.093 51.7319 63.8776 50.9619 63.4448 50.3559C62.972 49.7239 62.3371 49.4079 61.5412 49.4079C61.0017 49.4079 60.5115 49.5839 60.0735 49.9309C59.6346 50.2809 59.3474 50.7379 59.213 51.3039C59.1453 51.5679 59.1115 51.7839 59.1115 51.9539V53.5539C59.1115 54.2519 59.331 54.8409 59.77 55.3219C60.2089 55.8029 60.7792 56.0429 61.4807 56.0429C62.3043 56.0429 62.9453 55.7329 63.4038 55.1149C63.8633 54.4959 64.093 53.6799 64.093 52.6659Z" fill="white"/>
<path d="M77.6405 52.5879C77.6405 54.2199 77.1882 55.5099 76.2826 56.4569C75.4733 57.2999 74.4672 57.7209 73.2661 57.7209C71.9697 57.7209 71.0384 57.2669 70.4723 56.3589H70.4313V61.4139H68.2446V51.0669C68.2446 50.0409 68.2169 48.9879 68.1636 47.9079H70.0867L70.2087 49.4289H70.2497C70.9779 48.2829 72.0846 47.7109 73.5708 47.7109C74.7308 47.7109 75.7 48.1579 76.4774 49.0529C77.2518 49.9489 77.6405 51.1269 77.6405 52.5879ZM75.4128 52.6659C75.4128 51.7319 75.1964 50.9619 74.7636 50.3559C74.2908 49.7239 73.6579 49.4079 72.861 49.4079C72.3205 49.4079 71.8313 49.5839 71.3923 49.9309C70.9533 50.2809 70.6672 50.7379 70.5328 51.3039C70.4661 51.5679 70.4313 51.7839 70.4313 51.9539V53.5539C70.4313 54.2519 70.6508 54.8409 71.0877 55.3219C71.5266 55.8019 72.0969 56.0429 72.8005 56.0429C73.6241 56.0429 74.2651 55.7329 74.7236 55.1149C75.1831 54.4959 75.4128 53.6799 75.4128 52.6659Z" fill="white"/>
<path d="M90.2966 53.772C90.2966 54.904 89.8935 55.825 89.0842 56.536C88.195 57.313 86.9571 57.701 85.3663 57.701C83.8976 57.701 82.7201 57.425 81.8289 56.872L82.3355 55.095C83.2955 55.661 84.3489 55.945 85.4966 55.945C86.3201 55.945 86.9612 55.763 87.4217 55.401C87.8801 55.039 88.1089 54.553 88.1089 53.947C88.1089 53.407 87.9201 52.952 87.5417 52.583C87.1653 52.214 86.5366 51.871 85.6586 51.554C83.2689 50.685 82.075 49.412 82.075 47.738C82.075 46.644 82.4935 45.747 83.3314 45.049C84.1663 44.35 85.2801 44.001 86.673 44.001C87.915 44.001 88.9468 44.212 89.7704 44.633L89.2237 46.371C88.4545 45.963 87.5848 45.759 86.6114 45.759C85.8422 45.759 85.2412 45.944 84.8104 46.312C84.4463 46.641 84.2637 47.042 84.2637 47.517C84.2637 48.043 84.4719 48.478 84.8904 48.82C85.2545 49.136 85.916 49.478 86.876 49.847C88.0504 50.308 88.913 50.847 89.4678 51.465C90.0207 52.081 90.2966 52.852 90.2966 53.772Z" fill="white"/>
<path d="M97.5266 49.5081H95.1163V54.1671C95.1163 55.3521 95.5409 55.9441 96.3922 55.9441C96.783 55.9441 97.1071 55.9111 97.3635 55.8451L97.424 57.4641C96.9932 57.6211 96.426 57.7001 95.7235 57.7001C94.8599 57.7001 94.185 57.4431 93.6978 56.9301C93.2127 56.4161 92.9686 55.5541 92.9686 54.3431V49.5061H91.5327V47.9061H92.9686V46.1491L95.1163 45.5171V47.9061H97.5266V49.5081Z" fill="white"/>
<path d="M108.402 52.6269C108.402 54.1019 107.969 55.3129 107.105 56.2599C106.2 57.2349 104.998 57.7209 103.499 57.7209C102.055 57.7209 100.905 57.2539 100.048 56.3199C99.1904 55.3859 98.7617 54.2069 98.7617 52.7859C98.7617 51.2989 99.2027 50.0809 100.088 49.1339C100.971 48.1859 102.163 47.7119 103.661 47.7119C105.105 47.7119 106.267 48.1789 107.144 49.1139C107.983 50.0209 108.402 51.1919 108.402 52.6269ZM106.133 52.6959C106.133 51.8109 105.939 51.0519 105.546 50.4189C105.088 49.6529 104.432 49.2709 103.583 49.2709C102.704 49.2709 102.037 49.6539 101.578 50.4189C101.185 51.0529 100.991 51.8239 100.991 52.7359C100.991 53.6209 101.185 54.3799 101.578 55.0119C102.051 55.7779 102.711 56.1599 103.564 56.1599C104.399 56.1599 105.054 55.7699 105.527 54.9919C105.93 54.3469 106.133 53.5799 106.133 52.6959Z" fill="white"/>
<path d="M115.509 49.7829C115.293 49.7439 115.062 49.7239 114.82 49.7239C114.051 49.7239 113.456 50.0069 113.038 50.5739C112.673 51.0739 112.491 51.7059 112.491 52.4689V57.5039H110.305L110.326 50.9299C110.326 49.8239 110.298 48.8169 110.244 47.9089H112.148L112.228 49.7449H112.289C112.52 49.1139 112.884 48.6059 113.382 48.2249C113.869 47.8819 114.395 47.7109 114.963 47.7109C115.165 47.7109 115.347 47.7249 115.509 47.7499V49.7829Z" fill="white"/>
<path d="M125.289 52.2519C125.289 52.6339 125.263 52.9559 125.209 53.2189H118.649C118.674 54.1669 118.991 54.8919 119.6 55.3919C120.153 55.8389 120.868 56.0629 121.746 56.0629C122.717 56.0629 123.604 55.9119 124.4 55.6089L124.743 57.0889C123.812 57.4849 122.712 57.6819 121.444 57.6819C119.917 57.6819 118.719 57.2439 117.848 56.3689C116.978 55.4939 116.542 54.3189 116.542 52.8449C116.542 51.3979 116.947 50.1929 117.758 49.2319C118.608 48.2059 119.755 47.6929 121.199 47.6929C122.618 47.6929 123.692 48.2059 124.421 49.2319C124.998 50.0469 125.289 51.0549 125.289 52.2519ZM123.204 51.6989C123.218 51.0669 123.075 50.5209 122.779 50.0599C122.4 49.4669 121.819 49.1709 121.036 49.1709C120.321 49.1709 119.74 49.4599 119.296 50.0399C118.932 50.5009 118.715 51.0539 118.649 51.6979H123.204V51.6989Z" fill="white"/>
<path d="M50.3084 36.0092C50.3084 37.1862 49.9464 38.0722 49.2233 38.6672C48.5536 39.2162 47.6018 39.4912 46.3689 39.4912C45.7577 39.4912 45.2346 39.4652 44.7966 39.4132V32.9822C45.3679 32.8922 45.9833 32.8462 46.6479 32.8462C47.8223 32.8462 48.7074 33.0952 49.3043 33.5932C49.973 34.1562 50.3084 34.9612 50.3084 36.0092ZM49.1751 36.0382C49.1751 35.2752 48.9679 34.6902 48.5536 34.2822C48.1392 33.8752 47.5341 33.6712 46.7371 33.6712C46.3987 33.6712 46.1105 33.6932 45.8715 33.7392V38.6282C46.0038 38.6482 46.2459 38.6572 46.5977 38.6572C47.4202 38.6572 48.0551 38.4342 48.5023 37.9882C48.9495 37.5422 49.1751 36.8922 49.1751 36.0382Z" fill="white"/>
<path d="M56.3174 37.037C56.3174 37.762 56.1051 38.356 55.6805 38.822C55.2354 39.301 54.6456 39.54 53.9092 39.54C53.1995 39.54 52.6343 39.311 52.2128 38.851C51.7923 38.392 51.582 37.813 51.582 37.115C51.582 36.385 51.7984 35.786 52.2333 35.321C52.6682 34.856 53.2528 34.623 53.9892 34.623C54.699 34.623 55.2692 34.852 55.701 35.311C56.1113 35.757 56.3174 36.333 56.3174 37.037ZM55.2025 37.071C55.2025 36.636 55.1061 36.263 54.9143 35.952C54.6887 35.576 54.3677 35.388 53.9502 35.388C53.5184 35.388 53.1902 35.576 52.9646 35.952C52.7718 36.263 52.6764 36.642 52.6764 37.09C52.6764 37.525 52.7728 37.898 52.9646 38.209C53.1974 38.585 53.5215 38.773 53.94 38.773C54.3502 38.773 54.6723 38.582 54.9041 38.199C55.1031 37.882 55.2025 37.506 55.2025 37.071Z" fill="white"/>
<path d="M64.375 34.7192L62.8622 39.4332H61.8776L61.2509 37.3862C61.0919 36.8752 60.9627 36.3672 60.8622 35.8632H60.8427C60.7494 36.3812 60.6201 36.8882 60.454 37.3862L59.7883 39.4332H58.7924L57.3699 34.7192H58.4745L59.0212 36.9602C59.1535 37.4902 59.2622 37.9952 59.3494 38.4732H59.3688C59.4488 38.0792 59.5812 37.5772 59.7678 36.9702L60.454 34.7202H61.3299L61.9873 36.9222C62.1463 37.4592 62.2755 37.9762 62.375 38.4742H62.4047C62.4776 37.9892 62.5873 37.4722 62.7329 36.9222L63.3196 34.7202H64.375V34.7192Z" fill="white"/>
<path d="M69.9469 39.4331H68.8721V36.7331C68.8721 35.9011 68.5479 35.4851 67.8977 35.4851C67.5787 35.4851 67.3213 35.5991 67.1213 35.8281C66.9233 36.0571 66.8228 36.3271 66.8228 36.6361V39.4321H65.748V36.0661C65.748 35.6521 65.7346 35.2031 65.709 34.7171H66.6536L66.7039 35.4541H66.7336C66.8587 35.2251 67.0454 35.0361 67.2905 34.8851C67.5818 34.7091 67.908 34.6201 68.2649 34.6201C68.7162 34.6201 69.0915 34.7621 69.39 35.0471C69.7613 35.3961 69.9469 35.9171 69.9469 36.6091V39.4331Z" fill="white"/>
<path d="M72.9115 39.4332H71.8376V32.5562H72.9115V39.4332Z" fill="white"/>
<path d="M79.2398 37.037C79.2398 37.762 79.0275 38.356 78.6029 38.822C78.1577 39.301 77.567 39.54 76.8316 39.54C76.1208 39.54 75.5557 39.311 75.1352 38.851C74.7146 38.392 74.5044 37.813 74.5044 37.115C74.5044 36.385 74.7208 35.786 75.1557 35.321C75.5906 34.856 76.1752 34.623 76.9105 34.623C77.6213 34.623 78.1905 34.852 78.6234 35.311C79.0336 35.757 79.2398 36.333 79.2398 37.037ZM78.1239 37.071C78.1239 36.636 78.0275 36.263 77.8357 35.952C77.6111 35.576 77.289 35.388 76.8726 35.388C76.4398 35.388 76.1116 35.576 75.887 35.952C75.6941 36.263 75.5988 36.642 75.5988 37.09C75.5988 37.525 75.6952 37.898 75.887 38.209C76.1198 38.585 76.4439 38.773 76.8623 38.773C77.2726 38.773 77.5936 38.582 77.8254 38.199C78.0254 37.882 78.1239 37.506 78.1239 37.071Z" fill="white"/>
<path d="M84.4421 39.433H83.477L83.397 38.89H83.3673C83.037 39.323 82.5662 39.54 81.9549 39.54C81.4985 39.54 81.1293 39.397 80.8514 39.113C80.5991 38.855 80.4729 38.534 80.4729 38.153C80.4729 37.577 80.7191 37.138 81.2144 36.834C81.7088 36.53 82.4042 36.381 83.2996 36.388V36.3C83.2996 35.679 82.9652 35.369 82.2955 35.369C81.8185 35.369 81.398 35.486 81.035 35.718L80.8165 35.03C81.2657 34.759 81.8206 34.623 82.475 34.623C83.7385 34.623 84.3724 35.273 84.3724 36.573V38.309C84.3724 38.78 84.396 39.155 84.4421 39.433ZM83.3262 37.813V37.086C82.1406 37.066 81.5478 37.383 81.5478 38.036C81.5478 38.282 81.6155 38.466 81.7539 38.589C81.8924 38.712 82.0688 38.773 82.2791 38.773C82.515 38.773 82.7355 38.7 82.9365 38.555C83.1385 38.409 83.2626 38.224 83.3088 37.997C83.3201 37.946 83.3262 37.884 83.3262 37.813Z" fill="white"/>
<path d="M90.549 39.4332H89.5951L89.5449 38.6762H89.5151C89.2105 39.2522 88.6915 39.5402 87.9623 39.5402C87.3797 39.5402 86.8946 39.3172 86.51 38.8712C86.1254 38.4252 85.9336 37.8462 85.9336 37.1352C85.9336 36.3722 86.1418 35.7542 86.5603 35.2822C86.9654 34.8422 87.4618 34.6222 88.0526 34.6222C88.7018 34.6222 89.1562 34.8352 89.4146 35.2622H89.4351V32.5562H90.511V38.1632C90.511 38.6222 90.5233 39.0452 90.549 39.4332ZM89.4351 37.4452V36.6592C89.4351 36.5232 89.4249 36.4132 89.4054 36.3292C89.3449 36.0772 89.2146 35.8652 89.0167 35.6942C88.8167 35.5232 88.5756 35.4372 88.2977 35.4372C87.8967 35.4372 87.5828 35.5922 87.352 35.9032C87.1233 36.2142 87.0074 36.6112 87.0074 37.0962C87.0074 37.5622 87.1172 37.9402 87.3377 38.2312C87.5705 38.5412 87.8844 38.6962 88.2772 38.6962C88.63 38.6962 88.9121 38.5672 89.1264 38.3082C89.3336 38.0692 89.4351 37.7812 89.4351 37.4452Z" fill="white"/>
<path d="M99.7427 37.037C99.7427 37.762 99.5304 38.356 99.1058 38.822C98.6607 39.301 98.0719 39.54 97.3345 39.54C96.6258 39.54 96.0607 39.311 95.6381 38.851C95.2176 38.392 95.0073 37.813 95.0073 37.115C95.0073 36.385 95.2237 35.786 95.6586 35.321C96.0935 34.856 96.6781 34.623 97.4155 34.623C98.1242 34.623 98.6955 34.852 99.1263 35.311C99.5366 35.757 99.7427 36.333 99.7427 37.037ZM98.6289 37.071C98.6289 36.636 98.5324 36.263 98.3407 35.952C98.114 35.576 97.794 35.388 97.3755 35.388C96.9448 35.388 96.6166 35.576 96.3899 35.952C96.1971 36.263 96.1017 36.642 96.1017 37.09C96.1017 37.525 96.1981 37.898 96.3899 38.209C96.6227 38.585 96.9468 38.773 97.3653 38.773C97.7755 38.773 98.0986 38.582 98.3304 38.199C98.5284 37.882 98.6289 37.506 98.6289 37.071Z" fill="white"/>
<path d="M105.522 39.4331H104.448V36.7331C104.448 35.9011 104.124 35.4851 103.472 35.4851C103.153 35.4851 102.896 35.5991 102.697 35.8281C102.498 36.0571 102.399 36.3271 102.399 36.6361V39.4321H101.323V36.0661C101.323 35.6521 101.31 35.2031 101.285 34.7171H102.228L102.279 35.4541H102.308C102.434 35.2251 102.621 35.0361 102.865 34.8851C103.157 34.7091 103.483 34.6201 103.841 34.6201C104.291 34.6201 104.666 34.7621 104.965 35.0471C105.337 35.3961 105.522 35.9171 105.522 36.6091V39.4331Z" fill="white"/>
<path d="M112.755 35.5039H111.572V37.7939C111.572 38.3759 111.782 38.6669 112.198 38.6669C112.391 38.6669 112.551 38.6509 112.677 38.6179L112.705 39.4129C112.493 39.4909 112.214 39.5299 111.87 39.5299C111.445 39.5299 111.115 39.4039 110.876 39.1519C110.636 38.8999 110.517 38.4759 110.517 37.8809V35.5039H109.811V34.7189H110.517V33.8549L111.571 33.5449V34.7179H112.754V35.5039H112.755Z" fill="white"/>
<path d="M118.446 39.4332H117.37V36.7532C117.37 35.9082 117.046 35.4852 116.396 35.4852C115.898 35.4852 115.557 35.7302 115.371 36.2202C115.339 36.3232 115.32 36.4492 115.32 36.5972V39.4322H114.247V32.5562H115.32V35.3972H115.341C115.679 34.8802 116.165 34.6222 116.793 34.6222C117.238 34.6222 117.607 34.7642 117.899 35.0492C118.263 35.4042 118.446 35.9322 118.446 36.6302V39.4332Z" fill="white"/>
<path d="M124.316 36.8533C124.316 37.0413 124.301 37.1993 124.276 37.3283H121.052C121.066 37.7943 121.22 38.1493 121.519 38.3953C121.791 38.6153 122.143 38.7253 122.574 38.7253C123.051 38.7253 123.486 38.6513 123.878 38.5023L124.046 39.2303C123.587 39.4243 123.048 39.5213 122.423 39.5213C121.675 39.5213 121.085 39.3063 120.658 38.8763C120.229 38.4463 120.017 37.8693 120.017 37.1453C120.017 36.4343 120.215 35.8423 120.614 35.3703C121.03 34.8663 121.594 34.6143 122.304 34.6143C123 34.6143 123.528 34.8663 123.885 35.3703C124.173 35.7703 124.316 36.2653 124.316 36.8533ZM123.29 36.5823C123.298 36.2713 123.227 36.0033 123.082 35.7773C122.895 35.4863 122.611 35.3403 122.226 35.3403C121.876 35.3403 121.589 35.4823 121.371 35.7673C121.192 35.9943 121.087 36.2653 121.052 36.5823H123.29Z" fill="white"/>
<path d="M290.611 66H162.583C159.767 66 157.461 63.7487 157.461 61V31C157.461 28.2513 159.767 26 162.583 26H290.611C293.427 26 295.733 28.2513 295.733 31V61C295.733 63.7487 293.427 66 290.611 66Z" fill="black"/>
<path d="M290.611 26.8013C292.983 26.8013 294.912 28.685 294.912 31V61C294.912 63.315 292.983 65.1988 290.611 65.1988H162.583C160.211 65.1988 158.282 63.315 158.282 61V31C158.282 28.685 160.211 26.8013 162.583 26.8013H290.611ZM290.611 26H162.583C159.767 26 157.461 28.2513 157.461 31V61C157.461 63.7487 159.767 66 162.583 66H290.611C293.427 66 295.733 63.7487 295.733 61V31C295.733 28.2513 293.427 26 290.611 26Z" fill="#A6A6A6"/>
<path d="M206.028 36.244C206.028 37.079 205.772 37.7477 205.268 38.2465C204.688 38.8377 203.932 39.1352 203.007 39.1352C202.122 39.1352 201.367 38.8327 200.747 38.2365C200.126 37.6315 199.816 36.889 199.816 36.0002C199.816 35.1115 200.126 34.369 200.747 33.769C201.367 33.1677 202.122 32.8652 203.007 32.8652C203.447 32.8652 203.867 32.954 204.268 33.119C204.667 33.2852 204.992 33.5102 205.228 33.7877L204.693 34.3152C204.282 33.8415 203.722 33.6077 203.007 33.6077C202.361 33.6077 201.802 33.8277 201.327 34.2715C200.857 34.7165 200.621 35.2927 200.621 36.0002C200.621 36.7077 200.857 37.289 201.327 37.734C201.802 38.1727 202.361 38.3977 203.007 38.3977C203.692 38.3977 204.268 38.1727 204.722 37.729C205.022 37.4352 205.192 37.0302 205.237 36.5127H203.007V35.7902H205.982C206.018 35.9465 206.028 36.0977 206.028 36.244Z" fill="white" stroke="white" stroke-width="0.133858" stroke-miterlimit="10"/>
<path d="M210.748 33.7387H207.954V35.6387H210.473V36.3612H207.954V38.2612H210.748V38.9974H207.162V33.0024H210.748V33.7387Z" fill="white" stroke="white" stroke-width="0.133858" stroke-miterlimit="10"/>
<path d="M214.08 38.9974H213.289V33.7387H211.575V33.0024H215.796V33.7387H214.08V38.9974Z" fill="white" stroke="white" stroke-width="0.133858" stroke-miterlimit="10"/>
<path d="M218.85 38.9974V33.0024H219.64V38.9974H218.85Z" fill="white" stroke="white" stroke-width="0.133858" stroke-miterlimit="10"/>
<path d="M223.141 38.9974H222.356V33.7387H220.636V33.0024H224.862V33.7387H223.141V38.9974Z" fill="white" stroke="white" stroke-width="0.133858" stroke-miterlimit="10"/>
<path d="M232.854 38.2265C232.248 38.8327 231.498 39.1352 230.603 39.1352C229.703 39.1352 228.953 38.8327 228.347 38.2265C227.743 37.6215 227.442 36.879 227.442 36.0002C227.442 35.1215 227.743 34.379 228.347 33.774C228.953 33.1677 229.703 32.8652 230.603 32.8652C231.493 32.8652 232.243 33.1677 232.849 33.779C233.458 34.389 233.759 35.1265 233.759 36.0002C233.759 36.879 233.458 37.6215 232.854 38.2265ZM228.932 37.724C229.388 38.1727 229.942 38.3977 230.603 38.3977C231.258 38.3977 231.818 38.1727 232.269 37.724C232.723 37.2752 232.954 36.699 232.954 36.0002C232.954 35.3015 232.723 34.7252 232.269 34.2765C231.818 33.8277 231.258 33.6027 230.603 33.6027C229.942 33.6027 229.388 33.8277 228.932 34.2765C228.478 34.7252 228.247 35.3015 228.247 36.0002C228.247 36.699 228.478 37.2752 228.932 37.724Z" fill="white" stroke="white" stroke-width="0.133858" stroke-miterlimit="10"/>
<path d="M234.869 38.9974V33.0024H235.829L238.815 37.6649H238.849L238.815 36.5124V33.0024H239.604V38.9974H238.78L235.653 34.1049H235.619L235.653 35.2624V38.9974H234.869Z" fill="white" stroke="white" stroke-width="0.133858" stroke-miterlimit="10"/>
<path d="M227.247 47.7526C224.841 47.7526 222.876 49.5401 222.876 52.0064C222.876 54.4526 224.841 56.2589 227.247 56.2589C229.658 56.2589 231.623 54.4526 231.623 52.0064C231.623 49.5401 229.658 47.7526 227.247 47.7526ZM227.247 54.5839C225.927 54.5839 224.792 53.5201 224.792 52.0064C224.792 50.4726 225.927 49.4276 227.247 49.4276C228.567 49.4276 229.708 50.4726 229.708 52.0064C229.708 53.5201 228.567 54.5839 227.247 54.5839ZM217.71 47.7526C215.299 47.7526 213.339 49.5401 213.339 52.0064C213.339 54.4526 215.299 56.2589 217.71 56.2589C220.12 56.2589 222.081 54.4526 222.081 52.0064C222.081 49.5401 220.12 47.7526 217.71 47.7526ZM217.71 54.5839C216.389 54.5839 215.25 53.5201 215.25 52.0064C215.25 50.4726 216.389 49.4276 217.71 49.4276C219.03 49.4276 220.166 50.4726 220.166 52.0064C220.166 53.5201 219.03 54.5839 217.71 54.5839ZM206.362 49.0564V50.8639H210.783C210.653 51.8739 210.308 52.6164 209.778 53.1339C209.132 53.7589 208.127 54.4526 206.362 54.4526C203.641 54.4526 201.511 52.3089 201.511 49.6526C201.511 46.9964 203.641 44.8526 206.362 44.8526C207.833 44.8526 208.903 45.4139 209.693 46.1414L210.998 44.8676C209.893 43.8376 208.423 43.0464 206.362 43.0464C202.631 43.0464 199.496 46.0101 199.496 49.6526C199.496 53.2951 202.631 56.2589 206.362 56.2589C208.378 56.2589 209.893 55.6139 211.083 54.4039C212.304 53.2126 212.684 51.5376 212.684 50.1851C212.684 49.7651 212.648 49.3789 212.584 49.0564H206.362ZM252.767 50.4576C252.407 49.5064 251.297 47.7526 249.036 47.7526C246.796 47.7526 244.93 49.4764 244.93 52.0064C244.93 54.3889 246.777 56.2589 249.251 56.2589C251.253 56.2589 252.407 55.0676 252.882 54.3739L251.397 53.4076C250.902 54.1151 250.227 54.5839 249.251 54.5839C248.282 54.5839 247.587 54.1501 247.142 53.2951L252.968 50.9414L252.767 50.4576ZM246.827 51.8739C246.777 50.2339 248.131 49.3939 249.102 49.3939C249.862 49.3939 250.507 49.7651 250.723 50.2964L246.827 51.8739ZM242.091 56.0001H244.006V43.5001H242.091V56.0001ZM238.954 48.7001H238.89C238.46 48.2026 237.639 47.7526 236.6 47.7526C234.418 47.7526 232.423 49.6226 232.423 52.0201C232.423 54.4039 234.418 56.2589 236.6 56.2589C237.639 56.2589 238.46 55.8051 238.89 55.2926H238.954V55.9026C238.954 57.5289 238.064 58.4026 236.629 58.4026C235.459 58.4026 234.733 57.5776 234.433 56.8839L232.768 57.5626C233.248 58.6901 234.519 60.0776 236.629 60.0776C238.875 60.0776 240.77 58.7876 240.77 55.6489V48.0114H238.954V48.7001ZM236.764 54.5839C235.444 54.5839 234.339 53.5051 234.339 52.0201C234.339 50.5214 235.444 49.4276 236.764 49.4276C238.064 49.4276 239.09 50.5214 239.09 52.0201C239.09 53.5051 238.064 54.5839 236.764 54.5839ZM261.734 43.5001H257.153V56.0001H259.064V51.2639H261.734C263.856 51.2639 265.936 49.7651 265.936 47.3814C265.936 44.9989 263.851 43.5001 261.734 43.5001ZM261.784 49.5251H259.064V45.2389H261.784C263.21 45.2389 264.025 46.3951 264.025 47.3814C264.025 48.3489 263.21 49.5251 261.784 49.5251ZM273.592 47.7289C272.212 47.7289 270.777 48.3239 270.187 49.6426L271.882 50.3364C272.247 49.6426 272.918 49.4176 273.627 49.4176C274.618 49.4176 275.623 49.9989 275.638 51.0251V51.1564C275.293 50.9614 274.553 50.6726 273.642 50.6726C271.817 50.6726 269.956 51.6539 269.956 53.4851C269.956 55.1601 271.452 56.2389 273.133 56.2389C274.418 56.2389 275.127 55.6726 275.573 55.0139H275.638V55.9801H277.483V51.1851C277.483 48.9689 275.788 47.7289 273.592 47.7289ZM273.362 54.5789C272.737 54.5789 271.866 54.2764 271.866 53.5201C271.866 52.5526 272.952 52.1814 273.892 52.1814C274.733 52.1814 275.127 52.3626 275.638 52.6014C275.488 53.7589 274.468 54.5789 273.362 54.5789ZM284.205 48.0026L282.009 53.4214H281.944L279.674 48.0026H277.614L281.024 55.5751L279.078 59.7889H281.074L286.33 48.0026H284.205ZM266.986 56.0001H268.901V43.5001H266.986V56.0001Z" fill="white"/>
<path d="M168.149 33.5387C167.848 33.8462 167.674 34.3249 167.674 34.9449V57.0599C167.674 57.6799 167.848 58.1587 168.149 58.4662L168.224 58.5337L180.916 46.1462V45.8537L168.224 33.4662L168.149 33.5387Z" fill="url(#paint0_linear_4818_5027)"/>
<path d="M185.143 50.2773L180.917 46.1461V45.8536L185.148 41.7223L185.243 41.7761L190.254 44.5598C191.684 45.3498 191.684 46.6498 190.254 47.4448L185.243 50.2236L185.143 50.2773Z" fill="url(#paint1_linear_4818_5027)"/>
<path d="M185.243 50.224L180.916 46.0002L168.149 58.4665C168.624 58.954 169.399 59.0127 170.28 58.5252L185.243 50.224Z" fill="url(#paint2_linear_4818_5027)"/>
<path d="M185.243 41.7763L170.28 33.475C169.399 32.9925 168.624 33.0512 168.149 33.5387L180.916 46L185.243 41.7763Z" fill="url(#paint3_linear_4818_5027)"/>
<defs>
<linearGradient id="paint0_linear_4818_5027" x1="179.789" y1="57.2902" x2="163.012" y2="40.1061" gradientUnits="userSpaceOnUse">
<stop stop-color="#00A0FF"/>
<stop offset="0.0066" stop-color="#00A1FF"/>
<stop offset="0.2601" stop-color="#00BEFF"/>
<stop offset="0.5122" stop-color="#00D2FF"/>
<stop offset="0.7604" stop-color="#00DFFF"/>
<stop offset="1" stop-color="#00E3FF"/>
</linearGradient>
<linearGradient id="paint1_linear_4818_5027" x1="192.116" y1="45.9984" x2="167.333" y2="45.9984" gradientUnits="userSpaceOnUse">
<stop stop-color="#FFE000"/>
<stop offset="0.4087" stop-color="#FFBD00"/>
<stop offset="0.7754" stop-color="#FFA500"/>
<stop offset="1" stop-color="#FF9C00"/>
</linearGradient>
<linearGradient id="paint2_linear_4818_5027" x1="182.89" y1="43.7041" x2="160.138" y2="20.401" gradientUnits="userSpaceOnUse">
<stop stop-color="#FF3A44"/>
<stop offset="1" stop-color="#C31162"/>
</linearGradient>
<linearGradient id="paint3_linear_4818_5027" x1="164.936" y1="65.8238" x2="175.095" y2="55.418" gradientUnits="userSpaceOnUse">
<stop stop-color="#32A071"/>
<stop offset="0.0685" stop-color="#2DA771"/>
<stop offset="0.4762" stop-color="#15CF74"/>
<stop offset="0.8009" stop-color="#06E775"/>
<stop offset="1" stop-color="#00F076"/>
</linearGradient>
</defs>
</svg>
